<?xml version="1.0" encoding="UTF-8"?>
<svg id="Layer_2" data-name="Layer 2" xmlns="http://www.w3.org/2000/svg" viewBox="0 0 629.21 214.67">
  <defs>
    <style>
      .cls-1 {
        fill: #fff;
      }

      .cls-2, .cls-3 {
        fill: #94b60f;
      }

      .cls-3 {
        font-family: Poppins-SemiBold, Poppins;
        font-size: 18px;
        font-weight: 600;
      }
    </style>
  </defs>
  <g id="Layer_2-2" data-name="Layer 2">
    <g>
      <g>
        <path class="cls-1" d="M162.8,84.51c32.15-10.59,82.58-35.03,85.47-50.24,2.5-14.05-25.6-19.63-35.8-20.21-42.73-2.69-105.68,30.8-106.64,50.05-.39,4.04,.96,8.28,6.54,9.43,0,.19-1.92,.96-4.23,.96-9.24,0-15.02-5.77-13.86-15.21,2.5-20.98,45.43-51.97,104.33-51.97,3.46,0,6.93,.19,10.59,.38,20.6,1.35,47.93,10.97,46.58,33.49-1.54,26.76-48.32,40.62-61.98,43.7,.96-.19,3.66,0,6.54,.19,16.55,1.35,44.66,8.66,43.89,29.07-1.54,51.01-138.79,93.36-197.88,93.36-3.85,0-7.51-.19-10.78-.58-15.59-1.92-27.33-7.89-26.37-22.33,1.54-26.95,65.64-57.36,79.89-59.29,.19,.19,0,.19-1.35,.77-20.4,9.43-70.64,38.31-71.99,58.9-.38,7.12,13.86,8.28,19.06,8.66,2.31,.19,4.81,.19,7.31,.19,63.91,0,187.87-52.74,190.76-86.24,.96-12.9-21.75-17.13-35.8-18.09-2.5-.19-4.81-.19-7.31-.19-11.55,0-23.1,1.73-35.42,4.62-10.97,12.51-38.88,43.31-38.88,50.05,0,.58,.77,.96,1.54,.96,2.89,.19,10.59-2.5,12.7-3.46-3.66,3.46-12.7,9.43-16.75,9.43-3.27,0-6.16-1.54-5.97-6.54,.14-5.82,3.85-11.94,6.53-16.9,4.87-9,10.54-17.58,16.42-25.94,13.75-19.54,29.03-38.45,46.45-54.86,5.68-5.36,12.63-12.97,20.7-14.23,2.13-.33,4.5,.08,6.04,1.59,1.18,1.16,1.75,2.83,1.89,4.48,.21,2.55,.05,4.52-1.72,6.21s-4.09,3.12-6.02,4.73c-4.07,3.39-7.95,7.01-11.71,10.74-3.94,3.9-7.75,7.93-11.52,12-1.94,2.09-3.86,4.19-5.77,6.3-1.25,1.37-3.76,5.45-5.47,6.01Z"/>
        <path class="cls-1" d="M271.19,147.26c-1.16,1.54-2.12,2.89-3.08,4.43-2.69,3.85-5.2,7.51-8.66,10.39-2.5,2.31-5.39,3.46-8.85,2.7-5.39-1.16-8.08-3.47-8.47-9.05-.58-8.86,.58-17.33,3.85-25.6,1.15-2.89,2.5-5.77,3.85-8.66,2.69-5.2,6.35-9.24,10.97-12.71,7.7-5.58,15.98-5.2,23.29,1.73q1.54,1.54,2.89-.38c.96-1.35,1.92-2.69,3.08-4.04,.96-1.35,2.5-1.54,4.04-1.15,1.15,.38,2.31,.96,3.27,1.73,2.12,1.54,2.5,3.08,1.73,5.39-.96,2.5-2.12,4.81-3.08,7.12-3.27,6.35-5.77,12.7-8.28,19.25-2.5,6.54-4.04,13.28-5,20.02,0,.58-.19,1.15,.58,1.73,1.54-.96,2.89-2.12,4.43-3.46,7.51-6.93,13.47-15.02,19.83-22.71,.96-1.15,1.73-2.12,2.69-3.08,.39-.77,.96-1.35,1.73-1.54,.77-.38,1.54-.58,2.12,0,.38,.58,.38,1.16,.19,1.73-.38,.96-.77,1.92-1.35,2.69-6.16,9.05-12.32,18.09-19.83,26.18-2.89,3.08-5.97,5.77-10.39,6.54-5.97,.77-10.97-2.89-11.36-9.05-.39-3.27-.39-6.74-.19-10.2Zm-17.52,9.63c1.73-.96,2.7-2.12,3.66-3.27,7.51-8.66,14.05-18.09,20.4-27.53,1.35-2.12,2.31-4.43,2.89-6.74,.58-1.92,.58-3.85-.38-5.77-.58-1.35-1.73-1.92-3.27-1.73-.96,.39-2.12,.77-2.89,1.54-2.12,1.54-4.23,3.08-5.77,5-7.89,10.01-12.51,21.17-14.82,33.69-.19,1.35-.38,2.89,.19,4.81Z"/>
        <path class="cls-1" d="M334.33,112.03c2.69-1.92,5-3.46,7.31-5,3.27-2.12,6.74-2.89,10.59-1.73,7.12,2.12,10.97,8.28,9.62,15.59-.96,5-3.46,9.43-7.31,12.9-4.81,4.62-10.01,3.66-15.01,.96-.96-.39-1.54-1.35-1.35-2.5,.19-1.15,1.16-1.73,2.31-1.73,2.12,.19,3.27-1.35,4.62-2.69,3.66-3.85,5.97-8.66,6.54-13.86,.38-3.85-.39-4.24-3.66-2.7-4.04,1.93-7.89,4.43-11.16,7.51-6.74,5.97-11.74,12.9-15.4,21.37-3.27,7.51-7.12,14.82-11.17,21.94-2.31,4.43-8.85,4.81-12.7,2.7-1.15-.58-1.54-1.73-1.15-2.89,.38-1.35,.77-2.5,1.15-3.85,6.74-16.36,14.24-32.15,22.52-47.74,.77-1.73,1.93-3.27,2.89-4.81,1.35-1.54,2.89-2.12,5-1.73,.19,.19,.58,.19,.96,.19,4.81,1.35,5.77,2.5,5.39,8.08Z"/>
        <path class="cls-1" d="M390.16,147.26c-1.16,1.54-2.12,2.89-3.08,4.43-2.69,3.85-5.2,7.51-8.66,10.39-2.5,2.31-5.39,3.46-8.85,2.7-5.39-1.16-8.08-3.47-8.47-9.05-.58-8.86,.58-17.33,3.85-25.6,1.15-2.89,2.5-5.77,3.85-8.66,2.69-5.2,6.35-9.24,10.97-12.71,7.7-5.58,15.98-5.2,23.29,1.73q1.54,1.54,2.89-.38c.96-1.35,1.92-2.69,3.08-4.04,.96-1.35,2.5-1.54,4.04-1.15,1.15,.38,2.31,.96,3.27,1.73,2.12,1.54,2.5,3.08,1.73,5.39-.96,2.5-2.12,4.81-3.08,7.12-3.27,6.35-5.77,12.7-8.28,19.25-2.5,6.54-4.04,13.28-5,20.02,0,.58-.19,1.15,.58,1.73,1.54-.96,2.89-2.12,4.43-3.46,7.51-6.93,13.47-15.02,19.83-22.71,.96-1.15,1.73-2.12,2.69-3.08,.39-.77,.96-1.35,1.73-1.54,.77-.38,1.54-.58,2.12,0,.38,.58,.38,1.16,.19,1.73-.38,.96-.77,1.92-1.35,2.69-6.16,9.05-12.32,18.09-19.83,26.18-2.89,3.08-5.97,5.77-10.39,6.54-5.97,.77-10.97-2.89-11.36-9.05-.39-3.27-.39-6.74-.19-10.2Zm-17.52,9.63c1.73-.96,2.7-2.12,3.66-3.27,7.51-8.66,14.05-18.09,20.4-27.53,1.35-2.12,2.31-4.43,2.89-6.74,.58-1.92,.58-3.85-.38-5.77-.58-1.35-1.73-1.92-3.27-1.73-.96,.39-2.12,.77-2.89,1.54-2.12,1.54-4.23,3.08-5.77,5-7.89,10.01-12.51,21.17-14.82,33.69-.19,1.35-.38,2.89,.19,4.81Z"/>
        <path class="cls-1" d="M449.06,121.08c.47,0,1.51-.94,1.93-1.2,.72-.45,1.44-.9,2.16-1.36,4.71-3,8.79-7,13.57-9.86,2.79-1.67,6.87-2.97,9.43-.48,2.17,2.1,2.35,5.64,1.08,8.26-1.45,2.99-4.3,5.02-7.12,6.77-2.82,1.75-5.81,3.41-7.86,6.03-5.23,6.69,1.29,20.46,3.55,27.46,0,.38,.19,.77,.38,1.15,.96,1.92,1.54,2.12,3.27,.58,3.85-3.66,7.12-7.7,10.4-11.74,4.81-5.58,9.43-10.97,14.24-16.36,.77-.96,1.54-1.93,2.7-2.5,.58-.39,1.35-.58,1.92,0,.77,.58,.77,1.35,.38,2.12-.19,.58-.58,.96-.77,1.35-6.35,7.89-11.36,16.75-17.33,24.83-2.31,3.08-4.81,5.97-7.89,8.28-4.04,3.46-12.9,3.27-16.75-2.12-3.27-4.43-5.58-9.24-6.35-14.63-.77-3.85-1.73-7.89-2.12-11.74-.19-2.12-.96-2.5-2.5-1.15-3.46,2.89-6.54,5.77-8.47,10.01-2.7,6.16-5.2,12.13-8.66,17.9-2.12,3.46-7.7,4.62-10.97,2.31-1.73-1.16-2.31-2.5-1.54-4.62,.58-1.73,1.15-3.66,2.12-5.39,7.89-17.13,15.98-34.26,24.06-51.59,3.66-7.7,6.93-15.59,10.97-23.1,3.08-5.2,5.39-10.78,8.08-16.36,.77-1.16,1.35-2.31,1.92-3.47,2.7-4.81,8.86-5,11.74-.19,.77,1.16,.38,2.31,0,3.46-1.73,3.85-3.27,7.7-5,11.55-6.74,14.05-12.32,28.49-19.44,42.16-.58,1.15-.96,2.12-1.54,3.27,.19,.19,.19,.38,.39,.38Z"/>
        <path class="cls-1" d="M533.38,110.49c-5.58,3.27-10.78,7.12-15.98,10.97-4.04,3.08-7.12,6.93-9.24,11.74-4.04,9.05-8.66,17.9-12.7,27.14-1.93,4.04-4.43,5.77-8.86,5.39-1.73-.19-3.27-.19-4.81-1.16-1.15-.58-1.73-1.54-1.35-2.89,.39-1.16,.77-2.31,1.16-3.27,10.59-22.52,20.21-45.62,31.18-67.95,4.62-9.43,9.43-18.86,14.05-28.1,.58-1.35,1.35-2.5,2.12-3.46,.58-1.16,1.73-1.54,2.89-1.54,2.69,.19,5,1.35,6.74,3.27,1.15,1.15,.77,2.5,.39,3.85-1.35,3.27-2.7,6.54-4.04,9.63-4.62,10.78-9.43,21.37-14.05,31.95-.19,.58-.58,1.15-.39,1.73,1.15,.58,1.54-.38,2.12-.77,2.5-1.73,4.81-3.46,7.7-4.81,4.43-1.92,8.47-1.73,12.51,1.16,3.27,2.31,4.62,5.39,3.85,9.43-1.03,5.41-3.92,10.16-6.25,15.07-1.81,3.83-3.66,7.64-5.67,11.37-1.83,3.4-4.69,7.03-4.87,11.03-.3,6.91,4.95,9.42,10.77,9.79,8.39,.53,16.78,.86,25.19,.98,17.56,.26,35.09-1.2,52.56-1.4,2.44-.03,6.77-2.26,8.87-.21,4.22,4.14-5.2,5.98-7.9,6.44-23.72,4.09-47.59,3.82-71.57,4.18-8.6,.13-17.83,.22-25.69-3.77-6.48-3.29-7.84-11.06-5.86-17.68,2.12-7.7,4.23-15.21,8.66-21.94,3.27-5.2,6.16-10.59,9.05-15.78-.19-.19-.38-.19-.58-.39Z"/>
      </g>
      <g>
        <path class="cls-2" d="M.07,48.48c.35,3.7,2.29,7.25,5.25,9.51,.49,.31,1.22,.75,1.89,1.15-.16,4.83,2.26,9.69,6.22,12.41,5.93,4.23,14.39,3.03,18.93-2.35,.89,6.98,7.34,12.58,14.62,12.26,4.83-.12,9.46-2.91,11.98-7.04,.78,.03,1.62,.06,2.2,.06,3.71-.29,7.27-2.22,9.57-5.13,4.61-5.77,4.16-15.04-1.49-19.95-.16-.14-.33-.26-.5-.4,.27-.02,.54-.04,.81-.08,7.4-1.05,12.82-8.58,12.09-15.94-.35-3.7-2.29-7.25-5.25-9.51-.49-.31-1.22-.75-1.89-1.15,.16-4.83-2.26-9.69-6.22-12.41-5.93-4.23-14.39-3.03-18.93,2.35C48.47,5.29,42.02-.31,34.74,.01c-4.83,.12-9.46,2.91-11.98,7.04-.78-.03-1.62-.06-2.2-.06-3.71,.29-7.27,2.22-9.57,5.13-4.61,5.77-4.16,15.04,1.49,19.95,.16,.14,.33,.26,.5,.4-.27,.02-.54,.04-.81,.08C4.75,33.59-.67,41.13,.07,48.48ZM21.98,8.54c-.04,.08-.08,.15-.11,.23,0,0-.02,.03-.02,.03-.04,.14-.04,.02,.13-.26Zm2.36-1.43h-.09s-.02,0-.02,0c.08,0,.12,0,.11,0Zm15.16-2.1c3.45,1.08,6.21,3.91,7.12,7.42,.62,2.37,.07,4.51-.42,6.87-1.21,5.8-3.15,11.42-4.3,17.22-.02,.1-.04,.19-.07,.29,0,.02-.01,.04-.02,.06-.48,1.57-2.05,2.76-3.72,2.43-.97-.23-2.53-.83-3.51-1.13-2.38-.8-4.7-1.66-7.13-2.43-2.41-.76-4.81-1.42-7.03-2.35-2.51-1.02-4.67-2.35-6.22-4.32-1.74-2.32-2.53-5.37-1.95-8.22,.67-4.24,4.7-7.72,8.59-8.19,.85-.01,2.32,0,3.12,0,.12,0,.31,0,.43,0,.04,.05,1.33-.09,1.89-.71,.54-.54,.71-.93,.74-1.03,.61-1.47,1.5-2.8,2.72-3.84,2.68-2.32,6.36-3.11,9.76-2.05Zm33.8,16.6c-.05-.03-.1-.06-.13-.08,0-.02,.05,.01,.13,.08Zm1.04,2.7v-.04s.04-.29,.04-.29c-.01,.35-.09,.47-.04,.32Zm-5.04,22.41c-2.41,.71-4.93,.56-7.57-.06-.43-.1-.86-.21-1.29-.33-.25-.07-.5-.14-.75-.2-1.67-.48-3.35-1.06-5.06-1.61-2.43-.77-4.82-1.4-7.22-2.13-.97-.32-2.6-.72-3.52-1.1-1.54-.69-2.14-2.56-1.64-4.12,0-.03,.02-.05,.03-.08,.03-.09,.06-.18,.1-.26,.57-1.74,1.17-3.62,1.82-5.32,.53-1.31,1.04-2.64,1.55-3.99,.55-1.45,1.32-2.72,1.85-4.18,.61-1.66,1.25-3.31,2.02-4.9,.95-1.96,1.86-3.42,3.66-4.65,5.92-4.05,14.28-.95,16.04,6,.39,1.55,.36,3.16,0,4.71-.03,.09-.12,.52,0,1.26,.1,.83,1.08,1.69,1.13,1.67,.11,.07,.25,.18,.35,.25,.66,.46,1.86,1.31,2.54,1.81,2.91,2.63,4.19,7.8,2.29,11.65-1.17,2.66-3.58,4.7-6.34,5.59Zm-9.55,26.22c.03-.08,.08-.15,.11-.23l.02-.03c.04-.14,.04-.02-.13,.26Zm-2.36,1.43h.09s.02,0,.02,0c-.08,0-.12,0-.11,0Zm-9.96,2.3c-3.55,.64-7.27-.72-9.67-3.39-3.14-3.49-2.8-7.64-1.84-11.92,.97-4.38,2.08-8.73,3.19-13.09,.57-2.26,1.26-7,4.74-6.2,.97,.22,2.54,.82,3.52,1.12,2.38,.79,4.7,1.64,7.13,2.41,2.41,.75,4.82,1.41,7.04,2.32,2.52,1.01,4.67,2.33,6.23,4.3,1.75,2.31,2.55,5.36,1.98,8.21-.65,4.24-4.66,7.74-8.56,8.22-.85,.02-2.32,.02-3.12,.02-.12,0-.31,0-.43,0-.04-.05-1.33,.1-1.89,.72-.53,.54-.7,.93-.73,1.03-.6,1.47-1.49,2.81-2.71,3.85-1.39,1.21-3.08,2.06-4.9,2.4ZM8.42,59.87c.05,.03,.1,.06,.13,.08,0,.02-.05-.01-.13-.08Zm-1.04-2.7v.04s-.02,.14-.04,.28c.01-.35,.09-.47,.04-.32Zm-1.19-15.51c1.07-2.71,3.4-4.83,6.12-5.82,2.38-.8,4.91-.74,7.57-.22,.43,.08,.87,.18,1.3,.28,.25,.06,.5,.12,.75,.18,1.69,.42,3.39,.94,5.12,1.42,2.46,.68,4.87,1.22,7.3,1.86,.98,.28,2.62,.62,3.56,.97,1.56,.63,2.24,2.47,1.79,4.05,0,.03-.02,.05-.02,.08-.03,.09-.06,.18-.09,.27-.79,1.96-1.25,4.12-1.93,6.13s-1.45,4.15-2.19,6.21c-1.24,3.44-2.18,7.08-4.69,9.87-2.37,2.64-6.13,3.74-9.56,3.02-3.72-.78-6.83-3.54-7.9-7.2-.32-1.08-.5-2.34-.35-3.47,.13-1,.4-1.8-.03-2.8-.67-1.6-2.66-2.35-4.02-3.28-3-2.52-4.48-7.64-2.72-11.55Z"/>
        <path class="cls-2" d="M62.23,71.21c6.47,13.85,18.5,24.16,30.63,33.3,0,0-.54,.81-.54,.81-6.74-3.92-13.47-7.98-19.71-12.94-6.25-4.93-11.92-10.89-16.36-17.79l5.99-3.39h0Z"/>
      </g>
      <text class="cls-3" transform="translate(306.43 203.99) scale(1.27 1)"><tspan x="0" y="0">Sentra Usaha A.S.I.K</tspan></text>
    </g>
  </g>
</svg>